<?xml version="1.0" standalone="no"?><!DOCTYPE svg PUBLIC "-//W3C//DTD SVG 1.1//EN" "http://www.w3.org/Graphics/SVG/1.1/DTD/svg11.dtd"><svg t="1674545594445" class="icon" viewBox="0 0 1024 1024" version="1.1" xmlns="http://www.w3.org/2000/svg" p-id="32060" xmlns:xlink="http://www.w3.org/1999/xlink" width="200" height="200"><path d="M188.992 96c0-17.664 14.336-32 32-32l640 0c17.664 0 32 14.336 32 32l0 0c0 17.664-14.336 32-32 32l-640 0C203.328 128 188.992 113.664 188.992 96L188.992 96zM574.784 863.104 574.784 368.128l153.6 153.664c12.8 12.8 33.6 12.8 46.464 0s12.8-33.6 0-46.464L565.184 265.6c-0.64-0.64-1.408-0.832-2.048-1.344C560.512 262.016 557.76 259.904 554.496 258.56 550.848 257.152 547.136 256.448 543.296 256.32 542.784 256.32 542.464 256 541.952 256 541.184 256 540.608 256.448 539.904 256.448 536.32 256.64 532.8 257.216 529.344 258.496c-3.84 1.6-7.232 3.968-10.176 6.784 0 0-0.32 0.192-0.512 0.32L308.992 475.392c-6.4 6.4-9.6 14.784-9.6 23.168 0 8.448 3.264 16.832 9.6 23.232 12.864 12.8 33.6 12.8 46.464 0l153.664-153.664 0 494.976C509.12 881.28 523.52 896 541.632 896S574.784 881.28 574.784 863.104z" p-id="32061"></path></svg>