<?xml version="1.0" standalone="no"?><!DOCTYPE svg PUBLIC "-//W3C//DTD SVG 1.1//EN" "http://www.w3.org/Graphics/SVG/1.1/DTD/svg11.dtd"><svg t="1673939237632" class="icon" viewBox="0 0 1024 1024" version="1.1" xmlns="http://www.w3.org/2000/svg" p-id="2685" xmlns:xlink="http://www.w3.org/1999/xlink" width="200" height="200"><path d="M904 937.6c-11.5 0-22.9-4.4-31.7-13.1l-112-112c-17.5-17.5-17.5-45.8 0-63.3s45.8-17.5 63.3 0l112 112c17.5 17.5 17.5 45.8 0 63.3-8.7 8.7-20.1 13.1-31.6 13.1z" fill="#515151" p-id="2686" data-spm-anchor-id="a313x.7781069.0.i1" class="selected"></path><path d="M500.8 937.6C266.1 937.6 75.2 746.7 75.2 512S266.1 86.4 500.8 86.4 926.4 277.3 926.4 512 735.5 937.6 500.8 937.6z m0-761.6c-185.3 0-336 150.7-336 336s150.7 336 336 336 336-150.7 336-336-150.7-336-336-336z" fill="#515151" p-id="2687" data-spm-anchor-id="a313x.7781069.0.i0" class=""></path></svg>