<?xml version="1.0" standalone="no"?><!DOCTYPE svg PUBLIC "-//W3C//DTD SVG 1.1//EN" "http://www.w3.org/Graphics/SVG/1.1/DTD/svg11.dtd"><svg t="1669688190530" class="icon" viewBox="0 0 1024 1024" version="1.1" xmlns="http://www.w3.org/2000/svg" p-id="9693" xmlns:xlink="http://www.w3.org/1999/xlink" width="200" height="200"><path d="M938.666667 632.746667V938.666667H632.746667V632.746667H938.666667m85.333333-85.333334H547.413333V1024H1024V547.413333zM238.293333 632.746667c84.266667 0 152.96 68.693333 152.96 152.96S322.56 938.666667 238.293333 938.666667 85.333333 869.973333 85.333333 785.706667s68.693333-152.96 152.96-152.96m0-85.333334C106.666667 547.413333 0 654.08 0 785.706667S106.666667 1024 238.293333 1024s238.293333-106.666667 238.293334-238.293333-106.666667-238.293333-238.293334-238.293334zM512.426667 170.666667l126.506666 219.093333H386.133333L512.426667 170.666667m0-170.666667L238.08 475.093333h548.48L512.426667 0z" p-id="9694" data-spm-anchor-id="a313x.7781069.0.i5" class="selected"></path></svg>
