<?xml version="1.0" standalone="no"?><!DOCTYPE svg PUBLIC "-//W3C//DTD SVG 1.1//EN" "http://www.w3.org/Graphics/SVG/1.1/DTD/svg11.dtd"><svg t="1669688955758" class="icon" viewBox="0 0 1024 1024" version="1.1" xmlns="http://www.w3.org/2000/svg" p-id="37121" xmlns:xlink="http://www.w3.org/1999/xlink" width="200" height="200"><path d="M800 896a160 160 0 1 1 96-287.264V288l-512 96v416a161.472 161.472 0 1 1-64-127.264V224a96 96 0 0 1 96-96l448-64a96 96 0 0 1 96 96v576a160 160 0 0 1-160 160zM224 704a96 96 0 1 0 96 96 96 96 0 0 0-96-96zM896 192a64 64 0 0 0-64-64L448 192a64 64 0 0 0-64 64v64l512-96V192z m-96 448a96 96 0 1 0 96 96 96 96 0 0 0-96-96z" p-id="37122" data-spm-anchor-id="a313x.7781069.0.i16" class="selected"></path></svg>
